HIERARCHY
ROOT Hips
{
  OFFSET -331.093 83.8371 -317.828
  CHANNELS 6 Xposition Yposition Zposition Zrotation Xrotation Yrotation
  JOINT LeftUpLeg
  {
    OFFSET 8.64259 1.95398 -2.38835
    CHANNELS 3 Zrotation Xrotation Yrotation
    JOINT LeftLeg
    {
      OFFSET 43.7702 0 0
      CHANNELS 3 Zrotation Xrotation Yrotation
      JOINT LeftFoot
      {
        OFFSET 40.6238 0 0
        CHANNELS 3 Zrotation Xrotation Yrotation
        JOINT LeftToeBase
        {
          OFFSET 12.7242 0 0
          CHANNELS 3 Zrotation Xrotation Yrotation
          End Site
          {
            OFFSET 0 0 0
          }
        }
      }
    }
  }
  JOINT RightUpLeg
  {
    OFFSET -8.2249 1.95398 -2.59336
    CHANNELS 3 Zrotation Xrotation Yrotation
    JOINT RightLeg
    {
      OFFSET 43.5653 0 0
      CHANNELS 3 Zrotation Xrotation Yrotation
      JOINT RightFoot
      {
        OFFSET 40.6238 0 0
        CHANNELS 3 Zrotation Xrotation Yrotation
        JOINT RightToeBase
        {
          OFFSET 12.7242 0 0
          CHANNELS 3 Zrotation Xrotation Yrotation
          End Site
          {
            OFFSET 0 0 0
          }
        }
      }
    }
  }
  JOINT Spine
  {
    OFFSET 0.165834 0.87714 6.61349
    CHANNELS 3 Zrotation Xrotation Yrotation
    JOINT Spine1
    {
      OFFSET 7.38963 1.71661e-005 0
      CHANNELS 3 Zrotation Xrotation Yrotation
      JOINT Spine2
      {
        OFFSET 11.9445 1.14441e-005 0
        CHANNELS 3 Zrotation Xrotation Yrotation
        JOINT Spine3
        {
          OFFSET 14.7254 4.19617e-005 0
          CHANNELS 3 Zrotation Xrotation Yrotation
          JOINT Spine4
          {
            OFFSET 10.9679 0 0
            CHANNELS 3 Zrotation Xrotation Yrotation
            JOINT RightShoulder
            {
              OFFSET 2.46616 -1.6653 3.69651
              CHANNELS 3 Zrotation Xrotation Yrotation
              JOINT RightArm
              {
                OFFSET 13.0012 0 0
                CHANNELS 3 Zrotation Xrotation Yrotation
                JOINT RightForeArm
                {
                  OFFSET 28.7848 1.62311e-005 0
                  CHANNELS 3 Zrotation Xrotation Yrotation
                  JOINT RightHand
                  {
                    OFFSET 26.5688 1.62095e-005 0
                    CHANNELS 3 Zrotation Xrotation Yrotation
                    End Site
                    {
                      OFFSET 0 0 0
                    }
                  }
                }
              }
            }
            JOINT LeftShoulder
            {
              OFFSET 2.38034 -1.29275 -3.7523
              CHANNELS 3 Zrotation Xrotation Yrotation
              JOINT LeftArm
              {
                OFFSET 16.3182 6.07031e-005 0
                CHANNELS 3 Zrotation Xrotation Yrotation
                JOINT LeftForeArm
                {
                  OFFSET 27.0901 0 0
                  CHANNELS 3 Zrotation Xrotation Yrotation
                  JOINT LeftHand
                  {
                    OFFSET 24.5451 1.51738e-005 0
                    CHANNELS 3 Zrotation Xrotation Yrotation
                    End Site
                    {
                      OFFSET 0 0 0
                    }
                  }
                }
              }
            }
            JOINT Neck
            {
              OFFSET 5.0226 -0.0266342 0
              CHANNELS 3 Zrotation Xrotation Yrotation
              JOINT Head
              {
                OFFSET 6.69364 2.86102e-005 0
                CHANNELS 3 Zrotation Xrotation Yrotation
                End Site
                {
                  OFFSET 0 0 0
                }
              }
            }
          }
        }
      }
    }
  }
}
MOTION
Frames:	15
Frame Time:	0.0416667
366.414 89.6094 276.455 106.797 -38.4655 98.832 -176.616 19.3518 91.6696 -36.5791 47.0926 -0.531061 44.5407 -10.7104 5.47323 44.952 -66.4804 160.762 171.898 19.9074 81.3622 -90.3664 -8.28412 -2.87919 82.712 -14.398 -6.17287 45.283 -3.50882 -11.947 -6.62584 8.52251 -87.6099 10.1514 -12.1159 5.76257 -1.47764 -11.851 6.2951 -24.4574 -13.2789 1.79879 -4.44477 -13.2789 1.79878 78.0971 -1.66646 -158.701 67.0921 -0.770538 -2.62204 -6.73565 3.45449 -61.8224 -30.7365 -1.60341 0.708395 -77.6133 -40.3509 97.7349 -33.2314 35.0739 16.2042 10.7853 43.3972 -39.3668 -36.4844 15.9552 -53.7096 -2.59945 25.8024 25.0148 1.79802 21.2369 -48.0895 
365.665 91.9854 274.191 106.265 -49.8876 98.4369 -177.418 15.6694 90.1746 -25.9857 19.7118 1.07229 45.1849 -14.4726 -4.08144 23.7384 -42.4775 144.769 179.576 26.2746 80.0484 -90.4206 1.05873 -4.77112 59.8709 -3.75092 -3.43004 38.1748 -2.71607 -12.4153 -4.83768 8.14237 -87.9095 10.7824 -8.67021 4.96074 -0.870522 -8.44378 5.3388 -23.619 -9.75679 2.10676 -3.6064 -9.75678 2.10677 74.1977 -9.77405 -155.253 54.6715 -2.61911 -0.873721 -7.5637 1.07775 -71.6465 -29.677 -0.963119 -1.4959 -87.9249 -47.1603 81.7236 -28.8205 -3.39548 27.2675 25.6804 27.1806 -48.9813 -55.8952 27.2777 -35.1574 6.77515 22.3865 19.8196 -10.5353 21.688 -45.5959 
363.268 91.1771 271.729 105.898 -56.6771 102.3 -175.408 16.8146 97.2392 -18.8087 -16.4379 2.01692 23.1893 -20.2518 -31.6369 17.5734 -28.3399 140.013 -173.245 17.4385 81.1703 -91.2495 -6.75584 -7.3349 55.6557 0.344187 -0.968889 47.8818 -3.61925 -11.2937 -3.14731 8.22065 -88.5256 10.5191 -5.59211 3.42342 -1.14479 -5.4361 3.66653 -23.7679 -6.36163 1.57941 -3.75521 -6.36163 1.57941 74.6607 -15.2126 -147.852 46.8891 -8.79586 -0.603304 -11.5007 3.42023 -86.3124 -27.581 -0.640329 -2.47953 -89.5603 -45.9949 78.9919 -35.8025 -8.0199 36.5246 -6.82431 -7.07127 -63.7031 29.4419 0.330181 13.4222 15.316 16.2694 10.2868 -20.4677 18.5888 -33.5882 
358.982 92.7192 268.254 104.519 -56.5673 101.153 -175.815 15.714 98.2032 -6.68339 -29.8458 3.24381 10.3048 -19.0235 -43.7787 24.1894 -56.2952 132.901 -175.576 7.53578 81.152 -82.4512 -9.81277 -10.6558 62.9712 -0.414287 -1.1974 48.8828 -0.239614 0.507733 -2.14048 8.49328 -88.93 9.92267 -3.78039 2.43102 -1.74546 -3.66976 2.59511 -24.3183 -4.33596 1.18103 -4.30568 -4.33595 1.18103 79.0997 -16.7183 -137.343 44.397 -15.5439 -1.75324 -13.3421 4.11858 -93.8183 -27.1796 -1.08791 -0.548236 -83.1539 -40.0017 88.3296 -47.7196 -0.941931 38.0994 -5.09655 -6.08491 -72.1358 42.3678 3.37542 3.91071 20.1109 8.63261 6.16659 -23.7352 10.33 -19.8915 
351.771 96.6871 262.932 98.691 -53.7764 97.5402 -176.796 21.8288 98.1005 -7.87005 18.4417 -0.271808 9.08208 -28.3945 -7.32203 66.6923 8.17764 -34.0398 -179.11 5.71436 83.9561 -68.933 -14.035 -10.517 61.635 0.0494041 -0.518671 50.8771 0.567685 3.01274 -1.5639 8.53695 -89.6882 9.81299 -2.97596 0.856375 -1.85492 -2.93538 0.986613 -24.4175 -3.09563 -0.0784698 -4.40483 -3.09563 -0.0784686 84.569 -16.6651 -125.498 44.1756 -23.1842 -2.11253 -14.489 4.93814 -96.3849 -29.5731 -1.27592 -0.185362 -79.4536 -38.6621 94.531 -52.3112 -0.175065 37.982 -2.80355 -5.35847 -77.2242 41.3496 3.45782 4.4592 23.5915 3.26374 5.41303 -21.502 2.79186 -8.76727 
343.795 97.1153 257.26 94.2476 -51.159 94.0343 -176.612 25.79 102.576 3.10907 -76.4573 16.8012 -12.3267 -31.9287 -17.8397 -74.545 -33.7596 -45.9786 -179.856 10.0726 87.062 -63.9469 -15.1571 -8.92694 64.0391 -0.90897 -1.01182 53.5509 -3.02103 -7.33122 -0.885525 8.52833 -90.0284 9.81864 -1.77791 0.0862784 -1.85113 -1.7724 0.164458 -24.3955 -1.72163 -0.452203 -4.38283 -1.72162 -0.452215 87.1005 -21.2852 -116.667 43.8084 -23.8426 1.09067 -15.5435 4.79102 -92.8909 -30.6293 -1.32746 -0.154025 -83.4751 -44.2107 88.3285 -46.5354 -2.68435 34.0983 -4.44405 -5.22834 -78.4088 43.4201 4.34336 6.14139 18.2687 -1.40611 5.58659 -9.13112 -2.69251 -5.22186 
335.2 95.2703 250.722 93.0076 -51.5183 91.1148 -176.467 33.2042 100.051 5.57822 -81.7439 46.6843 -26.2453 -14.2089 -74.8218 -16.7138 -39.6398 19.0617 -179.639 18.4535 88.8407 -66.2735 -4.84947 -7.18682 69.9351 -3.42861 -2.38716 54.2956 -3.54013 -8.53077 0.0245946 8.22571 -90.2646 10.4218 -0.0724239 -0.521945 -1.24937 -0.0953257 -0.518253 -23.783 0.0877779 -0.51959 -3.77038 0.0877814 -0.51959 89.075 -26.8953 -109.487 42.0781 -21.9073 8.44309 -15.5563 3.05663 -87.0452 -29.8139 -1.33498 0.0339216 -95.5383 -52.8428 71.8853 -36.5958 -4.30345 31.5683 -6.17226 -5.50911 -74.8197 45.1858 3.46862 3.67746 5.06041 -6.52966 9.69374 3.84651 -8.31838 -4.45364 
326.872 95.1508 244.102 94.8697 -51.1785 90.7336 -172.169 39.003 91.4037 -71.9855 -2.65344 1.78129 61.3516 -4.26843 -8.9159 -3.49721 -25.6201 13.1806 178.607 23.9181 89.2307 -64.7966 1.44632 -5.35839 69.8049 -4.39702 -2.84314 43.887 -2.49032 -8.60693 0.546601 7.91426 -90.2849 11.0479 0.95601 -0.659495 -0.622916 0.926082 -0.700938 -23.1605 1.11002 -0.341654 -3.14788 1.11002 -0.341666 90.1031 -34.3103 -104.679 38.5957 -19.0187 15.6467 -15.6363 -0.527022 -78.8274 -28.6523 -1.3972 0.504069 -110.575 -57.5699 53.2272 -26.691 -0.872706 30.2726 -9.02962 -7.22999 -71.0972 45.0557 3.07766 2.83788 -7.9256 -9.83783 9.13623 11.6299 -10.9415 -4.2082 
319.731 93.4453 238.404 92.8304 -50.1764 89.4356 -168.695 37.6265 88.0966 -88.9014 12.8914 1.83209 74.3622 13.7396 7.8595 -24.3755 -37.8731 2.24781 -179.397 30.198 90.4689 -63.2369 4.15346 -5.12456 65.7767 -2.89209 -2.02268 52.5032 -1.17435 -2.21302 0.723191 7.6325 -90.4909 11.6142 1.20871 -1.10355 -0.0566549 1.15895 -1.15569 -22.5946 1.48447 -0.689251 -2.58193 1.48447 -0.689252 91.9036 -38.6041 -100.099 34.6413 -17.6103 19.2676 -14.7614 -4.14121 -70.1355 -29.7298 -1.8483 2.09365 -127.765 -60.4667 33.5448 -14.9384 2.6653 25.763 -9.63169 -8.11412 -67.9163 44.5917 3.68299 4.30218 -12.0125 -10.3128 10.4709 11.4794 -11.3639 -6.17114 
313.313 92.2089 232.789 92.9404 -51.0629 91.3105 -167.955 29.0803 89.8827 -93.6742 16.0581 2.24599 81.3139 21.0047 7.42624 -65.0612 -48.2428 -22.7788 -178.066 34.6287 93.8719 -61.6445 3.89888 -5.24568 69.43 -3.65415 -2.48564 37.4308 -1.56482 -7.03653 0.51622 7.80304 -90.6358 11.2713 0.73123 -1.33742 -0.400149 0.671669 -1.36831 -22.9333 1.09936 -1.05586 -2.9207 1.09937 -1.05586 92.7588 -38.6734 -98.5729 34.2172 -19.9392 20.4442 -11.8318 -6.40447 -62.9515 -32.5231 -1.75361 1.10913 -128.068 -60.2282 33.0557 -9.69483 4.42488 19.9314 -11.6267 -9.33811 -67.896 45.8375 2.6887 1.83323 -7.22314 -7.21256 10.2819 7.08339 -8.30679 -4.61947 
307.127 93.0603 226.3 92.0945 -53.4903 90.0295 -167.124 18.1581 88.6106 -86.068 19.2776 0.765576 87.5039 27.5876 7.52614 -92.3862 -41.6773 -46.177 -176.805 38.3003 92.7827 -54.9866 0.0621835 -5.3662 63.7356 -0.989279 -0.917773 32.8876 -1.18195 -7.16529 0.266261 7.89775 -90.3855 11.0781 0.351107 -0.801804 -0.593068 0.315481 -0.81648 -23.1268 0.575832 -0.659224 -3.11417 0.57584 -0.659229 92.7734 -37.4127 -98.855 36.7823 -21.7027 25.6838 -11.1036 -4.88141 -65.6355 -31.6567 -1.49532 0.321586 -120.244 -58.1464 41.3267 -9.48975 4.49374 17.6434 -15.15 -10.6842 -72.6475 45.0565 0.682265 -2.61125 -5.02001 -3.77695 8.89858 5.41021 -4.71014 -1.62522 
300.148 96.3302 218.484 89.0989 -53.9368 88.5381 -170.751 11.4467 86.4282 -70.7614 17.2241 -0.274882 90.7528 29.0308 6.04176 -96.3827 -36.8305 -52.0642 -179.132 36.0356 92.2255 -33.3981 -5.31789 -3.81452 51.3373 4.2335 3.26427 23.773 -0.291966 -4.80085 -0.155761 8.03375 -90.1728 10.8059 -0.389834 -0.306445 -0.865059 -0.402936 -0.289 -23.4002 -0.279719 -0.409441 -3.38754 -0.27972 -0.409442 93.6811 -36.7205 -97.3801 39.4069 -23.6517 27.693 -10.8131 -3.11156 -69.321 -30.7705 -1.49501 0.461955 -107.142 -53.5319 56.0123 -13.4098 5.27159 15.341 -15.4668 -10.1003 -78.4679 43.3039 -0.0683812 -4.31993 0.292176 -0.114404 5.3942 0.940859 -0.817971 2.26926 
292.889 99.4199 210.154 83.8965 -56.3319 84.9823 -174.164 8.62473 83.8403 -52.8174 21.7589 -1.53572 78.4507 26.6419 17.8753 -53.3247 -35.0822 -33.5931 179.985 33.7903 92.2369 -15.7635 -19.5109 -3.8382 45.2037 8.23305 6.92742 21.318 -0.360339 -9.30309 -0.134397 7.97031 -89.9383 10.9334 -0.238974 0.145433 -0.737547 -0.23234 0.155796 -23.2729 -0.271648 0.0668862 -3.2602 -0.271647 0.066879 94.5408 -35.6782 -96.0358 42.1683 -25.1689 28.6206 -9.60809 -1.45947 -70.0515 -31.2118 -0.834377 -2.0882 -97.5585 -47.3029 67.1558 -19.2458 8.67417 14.6211 -14.5253 -9.70855 -82.7383 42.2585 -0.564227 -5.524 4.15216 1.68514 3.33235 -1.44236 1.08194 2.04589 
285.588 100.302 202.431 79.8189 -57.8503 84.0494 -176.631 10.8845 84.4697 -44.0521 19.5975 -0.240279 70.6686 15.7717 15.2119 13.0975 -10.9359 1.93372 -176.238 36.0313 92.411 -28.2511 -13.9877 -5.1622 55.8577 2.30873 1.75608 35.0628 -2.07662 -11.3176 -0.040105 7.97649 -90.041 10.9212 -0.0987966 -0.0727923 -0.749727 -0.101935 -0.0683856 -23.2849 -0.0723457 -0.0991167 -3.27228 -0.0723543 -0.0991253 94.3821 -35.5752 -96.3516 41.6734 -22.7439 26.7629 -11.5119 -0.244441 -71.3593 -28.4413 -0.374136 -3.66298 -92.82 -43.7677 73.2763 -23.1281 11.6131 14.3513 -12.4507 -8.97877 -85.0013 44.3748 -0.541345 -5.41776 9.5258 3.4737 3.48839 -5.59641 2.5872 1.2014 
277.938 99.3857 194.237 79.7636 -59.1927 83.7234 -176.655 15.9155 84.8584 -42.5168 7.51847 -0.0747877 71.9601 7.47228 0.10862 43.6913 16.1417 10.8576 -176.398 38.286 91.5312 -54.1035 -2.67537 -5.27795 65.2344 -1.86287 -1.36142 38.7066 -2.49273 -11.2839 0.0227734 7.87648 -89.8523 11.1207 0.114048 0.283452 -0.55025 0.126402 0.278149 -23.0851 0.0235739 0.304623 -3.07248 0.0235817 0.304619 93.5656 -36.7628 -97.5805 38.7975 -23.8095 23.1028 -10.9621 -0.259972 -74.1206 -28.8207 -1.03871 -1.07617 -92.4487 -43.487 73.788 -25.0004 12.1876 17.3267 -9.8361 -8.36339 -82.63 45.1881 0.0644877 -4.11448 7.75923 4.04233 3.06708 -5.07984 3.31713 0.573471 
